<svg version="1.1" xmlns="http://www.w3.org/2000/svg" viewBox="0 0 494.4315475794115 340.6039669862389" width="494.4315475794115" height="340.6039669862389"><!-- svg-source:excalidraw --><metadata></metadata><defs><style class="style-fonts">
      </style></defs><rect x="0" y="0" width="494.4315475794115" height="340.6039669862389" fill="#fdf8f6"></rect><g stroke-linecap="round"><g transform="translate(88.76061991440133 16.409375227522105) rotate(0 0.754730224609375 124.15093231201172)"><path d="M0.1 0.51 C0.12 41.57, 0.88 206.25, 0.98 247.48 M-1.3 -0.27 C-1.56 41.44, -0.99 207.04, -0.24 248.59" stroke="#1971c2" stroke-width="2" fill="none"></path></g></g><mask></mask><g stroke-linecap="round"><g transform="translate(84.9870298265107 263.2018099199049) rotate(0 -26.41510009765625 26.792465209960938)"><path d="M-0.35 0.23 C-8.79 9.17, -42.82 45.12, -51.65 53.87 M1.66 -0.69 C-6.74 7.84, -42.64 42.84, -51.98 51.9" stroke="#1971c2" stroke-width="2" fill="none"></path></g></g><mask></mask><g stroke-linecap="round"><g transform="translate(88.00585917221383 263.95650962693617) rotate(0 0.37738037109375 32.8302001953125)"><path d="M-0.87 0.84 C-0.85 11.7, 0.89 54.38, 1.28 65.3 M0.87 0.24 C0.68 11.26, 0.57 55.95, 0.6 66.65" stroke="#1971c2" stroke-width="2" fill="none"></path></g></g><mask></mask><g stroke-linecap="round"><g transform="translate(86.49645975815133 261.6923799882643) rotate(0 32.45283508300781 27.54718017578125)"><path d="M0.1 -0.9 C10.7 8.31, 53.23 44.89, 63.83 54.39 M-1.31 1.24 C9.64 10.68, 54.77 46.72, 65.98 55.56" stroke="#1971c2" stroke-width="2" fill="none"></path></g></g><mask></mask><g stroke-linecap="round"><g transform="translate(11.024749553073207 14.145215071272105) rotate(0 232.07546997070312 -1.8867721557617188)"><path d="M0.28 0.17 C77.85 -0.25, 387.03 -2.02, 464.47 -2.63 M-1.02 -0.79 C76.49 -1.51, 386.09 -3.95, 463.69 -4.15" stroke="#1971c2" stroke-width="2" fill="none"></path></g></g><mask></mask><g stroke-linecap="round"><g transform="translate(32.91155985580758 314.6923489308706) rotate(0 226.03773498535156 -1.5094146728515625)"><path d="M-0.79 0.12 C74.34 -0.46, 375.95 -3.28, 451.52 -3.9 M1 -0.87 C75.86 -1.28, 375.08 -2.54, 450.28 -2.83" stroke="#1971c2" stroke-width="2" fill="none"></path></g></g><mask></mask><g stroke-linecap="round"><g transform="translate(173.2889097093232 17.33391997579247) rotate(0 -46.03773498535156 35.84904479980469)"><path d="M0.36 0.15 C-14.88 12.28, -76.02 60.77, -91.5 72.68 M-0.92 -0.81 C-16.26 11, -76.71 58.79, -92.15 71.08" stroke="#1971c2" stroke-width="2" fill="none"></path></g></g><mask></mask></svg>