<svg version="1.1" xmlns="http://www.w3.org/2000/svg" viewBox="0 0 485.4922262998857 338.6113609862389" width="485.4922262998857" height="338.6113609862389"><!-- svg-source:excalidraw --><metadata></metadata><defs><style class="style-fonts">
      </style></defs><rect x="0" y="0" width="485.4922262998857" height="338.6113609862389" fill="#fdf8f6"></rect><g stroke-linecap="round"><g transform="translate(79.50476191440134 14.416769227522082) rotate(0 0.754730224609375 124.15093231201172)"><path d="M0.1 0.51 C0.12 41.57, 0.88 206.25, 0.98 247.48 M-1.3 -0.27 C-1.56 41.44, -0.99 207.04, -0.24 248.59" stroke="#1971c2" stroke-width="2" fill="none"></path></g></g><mask></mask><g stroke-linecap="round"><g transform="translate(75.73117182651072 261.2092039199049) rotate(0 -26.41510009765625 26.792465209960938)"><path d="M-0.35 0.23 C-8.79 9.17, -42.82 45.12, -51.65 53.87 M1.66 -0.69 C-6.74 7.84, -42.64 42.84, -51.98 51.9" stroke="#1971c2" stroke-width="2" fill="none"></path></g></g><mask></mask><g stroke-linecap="round"><g transform="translate(78.75000117221384 261.96390362693614) rotate(0 0.37738037109375 32.8302001953125)"><path d="M-0.87 0.84 C-0.85 11.7, 0.89 54.38, 1.28 65.3 M0.87 0.24 C0.68 11.26, 0.57 55.95, 0.6 66.65" stroke="#1971c2" stroke-width="2" fill="none"></path></g></g><mask></mask><g stroke-linecap="round"><g transform="translate(77.24060175815134 259.69977398826427) rotate(0 32.45283508300781 27.54718017578125)"><path d="M0.1 -0.9 C10.7 8.31, 53.23 44.89, 63.83 54.39 M-1.31 1.24 C9.64 10.68, 54.77 46.72, 65.98 55.56" stroke="#1971c2" stroke-width="2" fill="none"></path></g></g><mask></mask><g stroke-linecap="round"><g transform="translate(11.024749553073207 14.145215071272105) rotate(0 232.07546997070312 -1.8867721557617188)"><path d="M0.28 0.17 C77.85 -0.25, 387.03 -2.02, 464.47 -2.63 M-1.02 -0.79 C76.49 -1.51, 386.09 -3.95, 463.69 -4.15" stroke="#1971c2" stroke-width="2" fill="none"></path></g></g><mask></mask><g stroke-linecap="round"><g transform="translate(23.655701855807592 312.69974293087057) rotate(0 226.03773498535156 -1.5094146728515625)"><path d="M-0.79 0.12 C74.34 -0.46, 375.95 -3.28, 451.52 -3.9 M1 -0.87 C75.86 -1.28, 375.08 -2.54, 450.28 -2.83" stroke="#1971c2" stroke-width="2" fill="none"></path></g></g><mask></mask><g stroke-linecap="round"><g transform="translate(164.03305170932322 15.341313975792445) rotate(0 -46.03773498535156 35.84904479980469)"><path d="M0.36 0.15 C-14.88 12.28, -76.02 60.77, -91.5 72.68 M-0.92 -0.81 C-16.26 11, -76.71 58.79, -92.15 71.08" stroke="#1971c2" stroke-width="2" fill="none"></path></g></g><mask></mask><g stroke-linecap="round"><g transform="translate(339.32196659943077 14.958221373239894) rotate(0 1.0247004679519023 27.666049441192627)"><path d="M0.62 0.55 C0.89 9.8, 1.11 46.6, 1.47 55.83 M-0.51 -0.21 C-0.43 8.65, -0.27 44.96, 0.22 53.96" stroke="#1971c2" stroke-width="2" fill="none"></path></g></g><mask></mask><g stroke-linecap="round" transform="translate(317.22689344265075 66.84685375369259) rotate(0 23.567392585894595 21.176484675423353)"><path d="M25.85 0.19 C30.58 0.26, 36.62 2.97, 40.17 6.15 C43.72 9.32, 46.81 14.61, 47.15 19.23 C47.49 23.86, 45.25 30.06, 42.23 33.88 C39.21 37.7, 33.9 41.14, 29.02 42.17 C24.13 43.2, 17.38 42.11, 12.92 40.08 C8.46 38.05, 4.19 34.07, 2.25 29.98 C0.31 25.89, -0.15 19.85, 1.27 15.53 C2.69 11.22, 6.4 6.7, 10.77 4.1 C15.15 1.5, 24.61 0.44, 27.53 -0.06 C30.44 -0.57, 28.45 0.64, 28.26 1.09 M21.35 0.11 C26.17 -0.7, 32.59 0.66, 36.78 3.27 C40.97 5.88, 45.11 11.45, 46.48 15.74 C47.86 20.02, 47.04 25.03, 45.01 28.98 C42.98 32.93, 38.72 37.26, 34.31 39.42 C29.91 41.58, 23.44 42.89, 18.57 41.96 C13.7 41.03, 8.13 37.44, 5.1 33.82 C2.08 30.21, 0.25 24.75, 0.4 20.27 C0.55 15.78, 2.48 10.2, 5.99 6.9 C9.5 3.6, 18.86 1.6, 21.45 0.46 C24.05 -0.68, 21.63 -0.33, 21.55 0.07" stroke="#1971c2" stroke-width="2" fill="none"></path></g><g stroke-linecap="round"><g transform="translate(342.0544091066615 111.27706835285653) rotate(0 1.0246728457596532 22.884261242442676)"><path d="M0.39 -0.39 C0.41 7.22, 0.2 38.56, 0.4 45.85 C0.6 53.14, 1.33 43.66, 1.58 43.36 M-0.08 0.59 C0.1 8.29, 1.04 39.39, 1.49 46.59 C1.95 53.79, 2.58 44.36, 2.66 43.78" stroke="#1971c2" stroke-width="2" fill="none"></path></g></g><mask></mask><g stroke-linecap="round"><g transform="translate(340.688270719623 111.9601927907604) rotate(0 -11.271401303355901 11.612915183471387)"><path d="M-0.4 0.23 C-4.2 3.89, -18.57 18.94, -22.21 22.72 M1.59 -0.69 C-2.39 3.06, -18.91 19.86, -22.98 23.99" stroke="#1971c2" stroke-width="2" fill="none"></path></g></g><mask></mask><g stroke-linecap="round"><g transform="translate(345.4700589183732 111.9601927907604) rotate(0 11.95447049687516 12.296011999182952)"><path d="M-0.05 -0.03 C3.91 3.89, 20.6 19.72, 24.72 23.67 M-1.54 -1.09 C2.26 2.94, 19.9 20.46, 24.19 24.72" stroke="#1971c2" stroke-width="2" fill="none"></path></g></g><mask></mask></svg>